PathFileType	4	(X/Y/Z)	Patient4_TMGait_0pt3_01_right_27.trc.trc
DataRate	CameraRate	NumFrames	NumMarkers	Units	OrigDataRate	OrigDataStartFrame	OrigNumFrames
50.909090909091	50.909090909091	7	33	mm	50.909090909091	106	       141
Frame#	Time	Sacral			L.Shoulder			Chest			R.Shoulder			Neck			R.ASIS			L.ASIS			R.Thigh.Superior			R.Thigh.Lateral			R.Thigh.Inferior			R.Patella			L.Thigh.Superior			L.Thigh.Lateral			L.Thigh.Inferior			L.Patella			L.Shank.Superior			L.Shank.Lateral			L.Shank.Inferior			R.Shank.Superior			R.Shank.Lateral			R.Shank.Inferior			R.Heel			R.Midfoot.Superior			R.Midfoot.Lateral			R.Toe			L.Heel			L.Midfoot.Lateral			L.Midfoot.Superior			L.Toe			L.Elbow			L.Wrist			R.Elbow			R.Wrist			
		X1	Y1	Z1	X2	Y2	Z2	X3	Y3	Z3	X4	Y4	Z4	X5	Y5	Z5	X6	Y6	Z6	X7	Y7	Z7	X8	Y8	Z8	X9	Y9	Z9	X10	Y10	Z10	X11	Y11	Z11	X12	Y12	Z12	X13	Y13	Z13	X14	Y14	Z14	X15	Y15	Z15	X16	Y16	Z16	X17	Y17	Z17	X18	Y18	Z18	X19	Y19	Z19	X20	Y20	Z20	X21	Y21	Z21	X22	Y22	Z22	X23	Y23	Z23	X24	Y24	Z24	X25	Y25	Z25	X26	Y26	Z26	X27	Y27	Z27	X28	Y28	Z28	X29	Y29	Z29	X30	Y30	Z30	X31	Y31	Z31	X32	Y32	Z32	X33	Y33	Z33	

106	51.962500000000	700.362625004978	984.384308044585	387.591396374821	909.461614179878	1419.415184097774	229.746227960820	986.998685498020	1346.163702594703	402.244142346822	881.116835310823	1417.103231961406	564.637001464786	874.052243795380	1478.656173066610	387.107018183421	919.511929390944	931.351704259051	528.866548899278	935.297183930150	944.295835757561	253.844041338056	995.379733894059	748.615364164503	511.728442094630	939.898704963674	631.842115394302	581.084960874159	1032.240684378071	584.065457106580	509.111636451596	1039.447364550485	471.776561203309	538.843478989499	991.296229495862	737.127183773588	299.158623433606	916.433891504152	609.766967437040	245.264479286594	1001.589349792921	542.166211977002	320.990978300198	1005.105352067473	467.328696520125	333.760941856509	961.273266479230	393.148111920833	328.287652778142	854.403515827007	294.372693649420	277.943936302172	876.358100522654	179.718930881765	354.125438600910	957.453170837541	403.256774931889	545.561128944998	826.654593960460	373.946786159480	591.863310491711	815.658430134007	260.145920754205	553.566050727033	617.685843062001	197.870706513435	502.045952937755	776.745571064764	144.977677352821	576.375809122029	663.018859827846	147.279636053198	590.592910123687	834.888932024013	36.474071242947	625.273188966808	723.498929892405	39.393328166202	395.720155104131	797.229140627908	36.059228226726	314.959176791031	882.240216872033	94.870479233435	343.016635026218	1009.344230189933	39.720122319601	311.130081595812	976.766035058003	1084.217739306896	88.815246799250	1127.182908936536	870.792256690632	103.104673315225	828.066148020439	1064.983570775879	666.666241823636	886.606048707932	814.936685577423	704.235955824385	
107	51.982142857143	699.605747426075	985.738169343289	384.594850652523	912.319095221860	1421.227452366332	231.144921359705	985.880387993441	1347.771200885821	405.172468724179	876.106348075485	1418.082392197048	565.330316710420	873.426041132319	1480.039448636225	387.907475230468	916.776917835383	933.178605837721	529.379291643322	936.178429081388	945.546207395891	254.718459420779	995.703172196966	753.170102468826	511.246728006699	942.922755735531	635.228907021484	580.398632894565	1035.976096970467	589.315208263998	508.248121583341	1046.247850227748	477.752353249725	537.999003731544	989.230288438721	736.469505425271	299.734990523393	912.830664404926	610.267525828053	245.079536544691	996.109409127786	541.562901855890	321.523750904070	998.614423641571	467.169684735675	334.428906502281	954.875298263407	393.344286796701	328.485803954624	848.376774454431	294.405975487334	277.719636067708	870.214392973862	179.841520997568	354.123477503840	966.982858792669	406.807749559261	544.913318642064	837.798745649359	371.987799151041	591.103118907834	831.796868648646	257.894168672691	552.835325269471	636.949242693809	185.784363874012	501.531418776330	798.324320563089	142.158002930281	575.669700495647	685.009240872470	138.568580577140	590.305704084167	862.038818170682	37.810378094999	625.129661651286	717.474508006203	39.364178272152	395.623469571419	791.269563400373	36.008657788530	314.861914831401	876.263245186423	94.837516626718	342.931995854716	1003.396215327251	39.737770900347	311.120162293824	987.042580415558	1088.301336451230	89.531550228628	1148.287637466732	882.916968506055	107.122611838590	806.436712118356	1068.000452957775	662.755250836004	848.805054878120	814.384839947858	697.639281053813	
108	52.001785714286	698.955462723172	987.965516295403	381.886573793725	915.397436461028	1423.741187411888	232.949851851324	984.932880947036	1350.006747702000	408.380084221570	871.411818163886	1419.844437706450	566.169804480977	872.969695753435	1482.069773581904	389.006268183667	914.011262543394	935.630552485430	530.137266868857	936.910970627824	947.387737162721	255.974443638958	995.329338148742	757.990461266841	510.949391716526	944.863508245560	639.043680465629	579.945450057239	1038.325868426098	594.727360988406	507.562620857299	1051.587881081518	484.283917670345	537.265818888858	986.462904383667	736.121733563900	300.557005520206	908.197060284863	611.347460441639	244.955350899810	989.356163104713	541.308387480577	322.015081376542	990.686568566455	467.451522443490	334.942143430665	947.304481074851	394.085459784652	328.503160015731	841.453466508452	294.686326931822	277.403931025822	863.655512014301	180.264191399877	354.012048694738	975.727919843004	410.769275406724	544.530999410260	849.053735802521	369.477237050080	591.151455445921	848.866128514373	255.308228101947	552.814790756072	658.203757266870	171.987118671849	502.428835154571	821.951630269789	138.924650728559	575.717183978273	709.515173718801	128.573737621974	591.150254827570	891.978876310886	39.523928541057	625.233546084939	711.437613085788	39.349801460188	395.526352261709	785.289323775130	35.963817249065	314.769479239440	870.261044894616	94.843564978476	342.793726236860	997.430040117855	39.773721260439	311.114302035676	996.918006189579	1093.249695836938	90.614218113612	1168.926664857097	896.880212321414	111.791787289761	785.666986017553	1072.686489296122	658.708908626990	812.411481080083	816.602528343955	690.964625661610	
109	52.021428571429	698.377577647037	990.849576742250	379.486661896691	918.676974158598	1426.746098108210	235.132293363802	984.165602088847	1352.640887422630	411.819900302868	867.105285226147	1422.172411861893	567.153544121785	872.708064666628	1484.546737776639	390.392607518737	911.223459153245	938.521862516764	531.125564616137	937.517310140688	949.652095871367	257.546645127532	994.275885772538	762.808084022815	510.887960611263	945.663912128177	643.028757959116	579.765269184540	1039.268914823008	600.002518084597	507.128444160755	1055.379527156728	491.081303074551	536.686561367477	983.085180332581	736.005826761051	301.596080031691	902.719053816967	612.876878166249	244.876082929080	981.583169345189	541.334244816543	322.441894413960	981.619162957147	468.080378852555	335.281330182971	938.820334532898	395.256196288541	328.342112052644	833.819014266662	295.164560731797	277.004531279400	856.769537474382	180.923779307943	353.805480317504	983.568708829842	414.966491176382	544.418472258157	860.382592336756	366.460257973182	592.023865367926	866.672693148343	252.556006036362	553.478549971116	681.350867370913	157.067941997799	504.693319895835	847.318694856507	135.552721908235	576.467294067681	736.311595073930	117.788334168894	593.046170412453	924.130422722926	41.757148228359	625.454083271011	705.398733892225	39.352262891417	395.429454107780	779.292664000213	35.925541571136	314.684763652181	864.242560647995	94.882195639175	342.614930544568	991.449703836499	39.823006511819	311.112491690294	1006.456147429930	1098.838712289400	92.022108046628	1188.977381266516	912.455139181626	117.034475137461	765.951451479162	1078.738874673158	654.616851337906	777.868217705904	821.178411742835	684.397478836287	
110	52.041071428571	697.838957621900	994.117772163586	377.414445086988	922.115596729741	1429.980045232052	237.652823218175	983.574761062541	1355.404686488701	415.441087599997	863.238642364183	1424.804197933245	568.283869454520	872.652760851043	1487.227611988282	392.050612634950	908.427405088672	941.611164237926	532.330147192392	938.020833203245	952.125605799181	259.365784717788	992.577500054028	767.320195923347	511.130986978639	945.292322919480	646.896158601359	579.907201390692	1038.824812129487	604.824639827770	507.033043940951	1057.577384777834	497.825623272675	536.318697990835	979.231969764363	736.022310386298	302.815423066873	896.637978068373	614.691054600632	244.827064368196	973.110749718571	541.545727802265	322.784661976359	971.780241042609	468.933288215662	335.440112638719	929.739698206470	396.707176994654	328.019349780167	825.703407335826	295.772893881643	276.536501359361	849.666444200393	181.737715292291	353.524521172553	990.405936012112	419.200487956965	544.582956988971	871.718355315358	362.985524636303	593.687800778078	884.977665590676	249.793081982687	554.762781205847	706.192030942002	141.633481556442	508.180985508236	874.039612799600	132.298299496679	577.826312548049	765.053797275774	106.707581869100	595.833875100337	957.825640794091	44.623106490540	625.660292418266	699.367658386414	39.370585052571	395.334164458034	773.284685960798	35.893537684800	314.609833879100	858.216562251863	94.943408621049	342.412220550429	985.459606509034	39.879741203168	311.115300679720	1015.718294492263	1104.796877145681	93.721947561689	1208.323350250656	929.336173296906	122.763534733490	747.451956663629	1085.782429085019	650.583575859969	745.571583852377	827.592859180663	678.092315393160	
111	52.060714285714	697.314940015241	997.473312731476	375.686415053229	925.648557011128	1433.162599861828	240.466096925486	983.144491166258	1358.024051796094	419.194502238673	859.841410181379	1427.464360757610	569.570234195709	872.799650618038	1489.857427683532	393.963242696475	905.645625081744	944.628720309417	533.736479430589	938.443711213826	954.575435094358	261.366024320616	990.287372938670	771.221748269411	511.752833379239	943.749402301738	650.356161524377	580.418382155362	1037.057678830295	608.894053731953	507.363416411677	1058.184811985980	504.197227346979	536.224702212748	975.072549785392	736.064772078651	304.175002507418	890.231324927631	616.610729721558	244.798042873877	964.297534923993	541.834240800733	323.032038624915	961.574119367901	469.872178989300	335.427171043707	920.405530426112	398.272127685309	327.565289983448	817.358404298444	296.433977092969	276.021014533160	842.467095739845	182.613211175280	353.194077791552	996.164701374101	423.265461318740	545.031832657176	882.949089123229	359.109049977465	596.055554748043	903.492544599127	247.150780307963	556.571201939234	732.410261144380	126.267635588846	512.651889852026	901.647484830670	129.373063657096	579.668646168130	795.262259389827	95.792788250287	599.285682824209	992.321432660595	48.176259892434	625.748677634284	693.351958047960	39.400467559950	395.243078916220	767.270743354245	35.866439904299	314.545775058468	852.190229317774	95.014861821864	342.203603823568	979.463889359168	39.937587216110	311.123777393001	1024.752633623387	1110.836366318662	95.691907045652	1226.850812913755	947.164667975275	128.886274268330	730.301558771879	1093.400094870158	646.720489649805	715.855581788108	835.257873018036	672.170672865301	
112	52.080357142857	696.795794849897	1000.628513895868	374.315113408111	929.191225840060	1436.030237760864	243.526011920844	982.849323589003	1360.254173711073	423.037714994368	856.920045990490	1429.896178447607	571.030939150997	873.128024027589	1492.199588996357	396.115456560198	902.911867830119	947.308479321676	535.329634573903	938.810104344122	956.779113244961	263.491436211606	987.479898589086	774.240715756507	512.822041901986	941.075810442954	653.146510801395	581.330143747915	1034.080224759003	611.961070672420	508.190065707261	1057.260075099256	509.904477370757	536.458674501339	970.798477999067	736.033713337807	305.638163016804	883.789422647033	618.463023646295	244.787581493757	955.507952965693	542.090793767732	323.186334651378	951.404109307005	470.759464205628	335.268463098899	911.154006743434	399.786230186417	327.023367386420	809.033360979918	297.071085777904	275.484275780145	835.291085627068	183.457543608215	352.841215349014	1000.798458502254	426.965822130518	545.767138013881	893.909437040525	354.896995590087	598.983418550225	921.877710828165	244.726744343595	558.781566955227	759.556217420070	111.497154701946	517.785849760943	929.592521883254	126.926282498434	581.849199926768	826.316200331611	85.442923554107	603.126148611825	1026.814139493099	52.390938304273	625.662846896007	687.356119560957	39.434477684935	395.160059156305	761.255925904795	35.841921699323	314.492680172383	846.168376720897	95.083520619628	342.006377970023	973.466079181424	39.990480649653	311.139193856864	1033.584124570321	1116.683866598383	97.923376321361	1244.445022673597	965.556026994445	135.308165261286	714.612185796863	1101.164367775839	643.138661762827	688.983102842496	843.561659455769	666.725032591784	
